<svg width="40" height="40" viewBox="0 0 40 40" fill="none" xmlns="http://www.w3.org/2000/svg">
<g clip-path="url(#clip0_9_579)">
<path d="M27.3495 51H21.6043V29.9717H21.3807L12.6161 35.4658V28.2891L22.0907 22.291H27.3495V51ZM27.3836 0.00292969V4.17285C27.3052 4.16869 27.2252 4.16408 27.1444 4.16406C26.2306 4.16409 25.4622 4.42543 24.8387 4.94629C24.2237 5.46731 23.7573 6.17641 23.4413 7.07324C23.1339 7.96993 22.9803 8.9905 22.9803 10.1348C22.9803 11.2793 23.1338 12.3004 23.4413 13.1973C23.7573 14.0941 24.2237 14.8032 24.8387 15.3242C25.4621 15.8364 26.2307 16.0927 27.1444 16.0928C27.2252 16.0928 27.3052 16.0881 27.3836 16.084V20.3174C27.2961 20.3191 27.2076 20.3213 27.119 20.3213C25.1291 20.3213 23.4079 19.8981 21.9559 19.0527C20.5124 18.1986 19.397 17.0106 18.6112 15.4902C17.8255 13.9615 17.4325 12.1893 17.4325 10.1738C17.4325 8.14104 17.8255 6.36411 18.6112 4.84375C19.397 3.31485 20.5124 2.12686 21.9559 1.28125C23.4079 0.427361 25.1291 0 27.119 0C27.2076 3.81821e-06 27.2961 0.00123245 27.3836 0.00292969Z" fill="#37C9FF"/>
</g>
<defs>
<clipPath id="clip0_9_579">
<rect width="40" height="40" fill="white"/>
</clipPath>
</defs>
</svg>
